<svg id="USD" xmlns="http://www.w3.org/2000/svg" xmlns:xlink="http://www.w3.org/1999/xlink" viewBox="0 0 80 80"><defs><style>.cls-1,.cls-2,.cls-5{fill:#b2e5f6;}.cls-1,.cls-3{clip-rule:evenodd;}.cls-3,.cls-4{fill:none;}.cls-5{fill-rule:evenodd;}.cls-6{clip-path:url(#clip-path);}.cls-7{clip-path:url(#clip-path-2);}.cls-8{clip-path:url(#clip-path-3);}.cls-9{clip-path:url(#clip-path-5);}.cls-10{clip-path:url(#clip-path-6);}.cls-11{fill:#232f3e;}.cls-12{clip-path:url(#clip-path-7);}.cls-13{clip-path:url(#clip-path-9);}.cls-14{clip-path:url(#clip-path-11);}.cls-15{clip-path:url(#clip-path-13);}.cls-16{clip-path:url(#clip-path-15);}.cls-17{clip-path:url(#clip-path-17);}.cls-18{clip-path:url(#clip-path-19);}.cls-19{clip-path:url(#clip-path-20);}.cls-20{clip-path:url(#clip-path-21);}.cls-21{clip-path:url(#clip-path-22);}.cls-22{clip-path:url(#clip-path-23);}.cls-23{clip-path:url(#clip-path-24);}</style><clipPath id="clip-path"><path class="cls-1" d="M41.72,45.37h.68c4,0,18.46-.16,18.49.75a1.56,1.56,0,0,1,.81.49,1.6,1.6,0,0,1-.12,2.26,19.87,19.87,0,0,0-6.52,12.42,1.58,1.58,0,0,1-1.22,1.34,1.31,1.31,0,0,1-.28.17,28.21,28.21,0,0,1-23,0,.38.38,0,0,1-.12-.13A1.61,1.61,0,0,1,29,61.29a19.87,19.87,0,0,0-6.52-12.42,1.6,1.6,0,0,1,1.78-2.63C25.18,45.2,37.91,45.36,41.72,45.37Z"/></clipPath><clipPath id="clip-path-2"><rect class="cls-2" x="-759.1" y="-399.13" width="2297.33" height="1292.25"/></clipPath><clipPath id="clip-path-3"><ellipse class="cls-2" cx="42.24" cy="31.44" rx="26.65" ry="26.76"/></clipPath><clipPath id="clip-path-5"><path class="cls-3" d="M39.36,56.74A28.37,28.37,0,1,1,67.61,28.37,28.34,28.34,0,0,1,39.36,56.74Zm0-53.53a25.16,25.16,0,1,0,25,25.16A25.13,25.13,0,0,0,39.36,3.21Z"/></clipPath><clipPath id="clip-path-6"><rect class="cls-4" x="-759.1" y="-399.13" width="2297.33" height="1292.25"/></clipPath><clipPath id="clip-path-7"><path class="cls-3" d="M39.36,65.22a27.85,27.85,0,0,1-11.5-2.45,1.6,1.6,0,0,1,1.3-2.93,25,25,0,0,0,20.39,0,1.6,1.6,0,0,1,1.3,2.93,27.81,27.81,0,0,1-11.49,2.45"/></clipPath><clipPath id="clip-path-9"><path class="cls-3" d="M39.36,72.61a21,21,0,0,1-9.85-2.45,1.74,1.74,0,0,1-.7-2.12,1.3,1.3,0,0,1,1.81-.81,18.67,18.67,0,0,0,17.47,0A1.3,1.3,0,0,1,49.9,68a1.74,1.74,0,0,1-.7,2.12,21,21,0,0,1-9.84,2.45"/></clipPath><clipPath id="clip-path-11"><path class="cls-3" d="M39.36,80a28.14,28.14,0,0,1-7.07-.9,1.61,1.61,0,0,1,.8-3.11,25.08,25.08,0,0,0,12.53,0,1.61,1.61,0,0,1,.8,3.11,28.12,28.12,0,0,1-7.06.9"/></clipPath><clipPath id="clip-path-13"><path class="cls-4" d="M37.77,22.38a2.46,2.46,0,0,0-1.43.81,2.24,2.24,0,0,0-.52,1.51,2,2,0,0,0,.52,1.39,3,3,0,0,0,1.43.86Zm2.35,14.8a2,2,0,0,0,1.4-.66,2.07,2.07,0,0,0,.55-1.45,2.34,2.34,0,0,0-2-2.29ZM38.5,46a1.06,1.06,0,0,1-.76-.22,1.11,1.11,0,0,1-.23-.8V41.82a13.36,13.36,0,0,1-5.62-1.67,3.69,3.69,0,0,1-.59-.39.83.83,0,0,1-.23-.38,2.1,2.1,0,0,1-.07-.63V36.23q0-.93.69-.93a2.08,2.08,0,0,1,.73.28,20.13,20.13,0,0,0,2.73,1.14,10.83,10.83,0,0,0,2.36.5V32l-1.32-.48a10.54,10.54,0,0,1-4.25-2.61,5.51,5.51,0,0,1-1.34-3.77,6.89,6.89,0,0,1,2-5,8.22,8.22,0,0,1,5.2-2.36V14.7a1.11,1.11,0,0,1,.23-.8,1.08,1.08,0,0,1,.76-.22h.63a1.05,1.05,0,0,1,.78.22,1.16,1.16,0,0,1,.21.8v3.14a11.28,11.28,0,0,1,4.2,1.23,1.76,1.76,0,0,1,.73.54,1.72,1.72,0,0,1,.16.86v2.45c0,.62-.23.92-.69.92a4.43,4.43,0,0,1-1.06-.41,12.49,12.49,0,0,0-3.34-1v5.36l.8.27a12,12,0,0,1,4.74,2.73,5.35,5.35,0,0,1,1.44,3.82,6.72,6.72,0,0,1-2,4.95,8.19,8.19,0,0,1-5.25,2.25V45a1.11,1.11,0,0,1-.22.8,1,1,0,0,1-.77.22Z"/></clipPath><clipPath id="clip-path-15"><path class="cls-4" d="M29.39,60.89A23,23,0,0,0,21.45,46.4a1.73,1.73,0,0,0-2.38.12,1.58,1.58,0,0,0,.13,2.29,19.79,19.79,0,0,1,6.86,12.53A1.68,1.68,0,0,0,28,62.72,1.63,1.63,0,0,0,29.39,60.89Z"/></clipPath><clipPath id="clip-path-17"><path class="cls-4" d="M48.57,60.89A23,23,0,0,1,56.51,46.4a1.73,1.73,0,0,1,2.38.12,1.58,1.58,0,0,1-.13,2.29A19.79,19.79,0,0,0,51.9,61.34,1.68,1.68,0,0,1,50,62.72,1.63,1.63,0,0,1,48.57,60.89Z"/></clipPath><clipPath id="clip-path-19"><path class="cls-3" d="M-253.67-67.92h5.82a16.94,16.94,0,0,0,1.18-6.18,17.24,17.24,0,0,0-17.21-17.18h-14.8A17.25,17.25,0,0,0-295.9-74.1a17.25,17.25,0,0,0,14.07,16.88v6a.92.92,0,0,0,1.57.64l6.4-6.39h4.16A17.26,17.26,0,0,1-253.67-67.92Zm-30.69-6a2.75,2.75,0,0,1-2.76-2.75,2.75,2.75,0,0,1,2.76-2.75,2.75,2.75,0,0,1,2.75,2.75A2.75,2.75,0,0,1-284.36-73.87Zm10.21,0a2.76,2.76,0,0,1-2.76-2.75,2.76,2.76,0,0,1,2.76-2.75,2.75,2.75,0,0,1,2.75,2.75A2.75,2.75,0,0,1-274.15-73.87Zm7.46-2.75a2.75,2.75,0,0,1,2.75-2.75,2.76,2.76,0,0,1,2.76,2.75,2.76,2.76,0,0,1-2.76,2.75A2.75,2.75,0,0,1-266.69-76.62Z"/></clipPath><clipPath id="clip-path-20"><path class="cls-3" d="M-238.71-68.72H-253.6A18.72,18.72,0,0,0-272.31-50,18.72,18.72,0,0,0-253.6-31.33h9.46l6,6a2.32,2.32,0,0,0,1.63.67,2.31,2.31,0,0,0,.89-.17,2.31,2.31,0,0,0,1.42-2.14v-5A18.71,18.71,0,0,0-220-50,18.72,18.72,0,0,0-238.71-68.72Zm2.91,34.34A1.39,1.39,0,0,0-236.93-33v5l-5.65-5.65a1.39,1.39,0,0,0-1-.41h-10A16,16,0,0,1-269.54-50,16,16,0,0,1-253.6-65.95h14.89A16,16,0,0,1-222.77-50,15.94,15.94,0,0,1-235.8-34.38Z"/></clipPath><clipPath id="clip-path-21"><path class="cls-3" d="M-273.85-60.76h-2.59a1.38,1.38,0,0,0-1,.4l-5.65,5.65v-5A1.38,1.38,0,0,0-284.2-61a15.94,15.94,0,0,1-13-15.65,16,16,0,0,1,15.94-15.92h14.89a16,16,0,0,1,15.94,15.92,16.14,16.14,0,0,1-.4,3.54,1.37,1.37,0,0,0,1,1.66,1.38,1.38,0,0,0,1.66-1,18.75,18.75,0,0,0,.47-4.16A18.72,18.72,0,0,0-266.4-95.38h-14.89A18.72,18.72,0,0,0-300-76.69a18.72,18.72,0,0,0,14.15,18.12v5a2.29,2.29,0,0,0,1.43,2.13,2.32,2.32,0,0,0,.89.18A2.33,2.33,0,0,0-281.9-52l6-6h2a1.39,1.39,0,0,0,1.39-1.39,1.38,1.38,0,0,0-1.39-1.38"/></clipPath><clipPath id="clip-path-22"><path class="cls-3" d="M-242.56-51.28a2.05,2.05,0,0,0,2.05-2,2,2,0,0,0-2.05-2.05,2,2,0,0,0-2.06,2.05,2.05,2.05,0,0,0,2.06,2"/></clipPath><clipPath id="clip-path-23"><path class="cls-3" d="M-250.77-51.28a2.05,2.05,0,0,0,2.05-2,2,2,0,0,0-2.05-2.05,2,2,0,0,0-2,2.05,2.05,2.05,0,0,0,2,2"/></clipPath><clipPath id="clip-path-24"><path class="cls-3" d="M-240.95-47.79a1.38,1.38,0,0,0-2,0,5,5,0,0,1-3.7,1.67,5,5,0,0,1-3.7-1.67,1.37,1.37,0,0,0-2,0,1.55,1.55,0,0,0,0,2.12,7.74,7.74,0,0,0,5.75,2.59,7.76,7.76,0,0,0,5.76-2.59,1.55,1.55,0,0,0,0-2.12"/></clipPath></defs><title>USD</title><path class="cls-5" d="M41.72,45.37h.68c4,0,18.46-.16,18.49.75a1.56,1.56,0,0,1,.81.49,1.6,1.6,0,0,1-.12,2.26,19.87,19.87,0,0,0-6.52,12.42,1.58,1.58,0,0,1-1.22,1.34,1.31,1.31,0,0,1-.28.17,28.21,28.21,0,0,1-23,0,.38.38,0,0,1-.12-.13A1.61,1.61,0,0,1,29,61.29a19.87,19.87,0,0,0-6.52-12.42,1.6,1.6,0,0,1,1.78-2.63C25.18,45.2,37.91,45.36,41.72,45.37Z"/><g class="cls-6"><rect class="cls-2" x="-759.1" y="-399.13" width="2297.33" height="1292.25"/><g class="cls-7"><rect class="cls-2" x="16.01" y="39.37" width="52.09" height="31.86"/></g></g><ellipse class="cls-2" cx="42.24" cy="31.44" rx="26.65" ry="26.76"/><g class="cls-8"><rect class="cls-2" x="-759.1" y="-399.13" width="2297.33" height="1292.25"/><g class="cls-7"><rect class="cls-2" x="9.61" y="-1.31" width="65.27" height="65.49"/></g></g><g class="cls-9"><g class="cls-10"><rect class="cls-11" x="5.12" y="-5.98" width="68.46" height="68.71"/></g></g><g class="cls-12"><g class="cls-10"><rect class="cls-11" x="20.93" y="53.72" width="36.86" height="17.49"/></g></g><g class="cls-13"><g class="cls-10"><rect class="cls-11" x="22.71" y="61.11" width="33.29" height="17.49"/></g></g><g class="cls-14"><g class="cls-10"><rect class="cls-11" x="25.11" y="69.96" width="28.49" height="16.03"/></g></g><g class="cls-15"><g class="cls-10"><rect class="cls-11" x="24.62" y="7.69" width="28.72" height="44.27"/></g></g><g class="cls-16"><g class="cls-10"><rect class="cls-11" x="12.66" y="40" width="22.73" height="28.72"/></g></g><g class="cls-17"><g class="cls-10"><rect class="cls-11" x="42.57" y="40" width="22.73" height="28.72"/></g></g></svg>