<?xml version="1.0" encoding="utf-8"?>
<!-- Generator: Adobe Illustrator 24.2.0, SVG Export Plug-In . SVG Version: 6.00 Build 0)  -->
<svg version="1.1" id="Layer_1" xmlns="http://www.w3.org/2000/svg" xmlns:xlink="http://www.w3.org/1999/xlink" x="0px" y="0px"
	 viewBox="0 0 634 88" style="enable-background:new 0 0 634 88;" xml:space="preserve">
<style type="text/css">
	.st0{fill:#232F3E;}
</style>
<path class="st0" d="M63.1,7.7h43.8v15h-6.7v-8.9H77.9v22.1h19.6v5.9H77.9v20.9h8.5v6.1H63.2v-6.1H71V41.8h-3.2l-27,27h-8.2l27.1-27
	H46.4l-26.9,27h-8.3l27-27H0.5v-5.9H60L31.4,7.7h8.4l28.4,28.2h2.7v-22h-7.8C63.1,13.9,63.1,7.7,63.1,7.7z M132.4,28.5
	c-4.3,0-9,4.3-12.1,9.8v-9h-12.5V35h6.3v28.3h-6.3v5.6H128v-5.6h-7.4V43.5c2-4,5.6-7.5,8.6-8.4c0.6,1.8,2.3,3.3,4.7,3.3
	c2.5,0,4.5-2.2,4.5-4.7C138.3,31.1,136.3,28.5,132.4,28.5z M179.6,47.2c0,1.5-0.1,2.7-0.4,3.7h-30.5c0.9,8.7,6.7,13,15.2,13
	c5.3,0,9.3-1.7,13.9-4.4l-0.6,6.2c-4.1,2.5-9.2,3.8-14.2,3.8c-12.6,0-21.1-8.4-21.1-20.4c0-11,7.3-20.6,19.4-20.6
	C173.3,28.5,179.6,37.4,179.6,47.2L179.6,47.2z M173.1,45.8c-0.5-7-4.5-11.8-12-11.8c-6,0-11.3,4.3-12.3,11.8H173.1z M205.1,45.8
	c-6.5-1.7-10.1-2.9-10.1-6.3c0-2.9,3.2-5.8,8.6-5.8c3,0,5.6,0.5,7,1.4c-0.4,0.7-0.5,1.6-0.5,2.2c0,2.4,1.9,4.1,4.3,4.1
	c2.2,0,3.9-1.8,3.9-4.3c0-1.7-0.6-3.2-2-4.6c-2.4-2.4-7.2-4.1-12.5-4.1c-9.5,0-15.1,5.5-15.1,11.4c0,7.3,5.9,9.6,15.5,12
	c5.7,1.4,9.4,2.8,9.4,6.4c0,3.8-4.3,6.1-9.7,6.1c-4.3,0-7.5-1.2-8.8-2.2c0.4-0.8,0.7-1.6,0.7-2.4c0-2.4-1.8-4.1-4.3-4.1
	c-2.3,0-4,2-4,4.4c0,2,0.7,3.5,2.1,4.9c2.7,2.7,8.6,4.6,14.3,4.6c8.5,0,15.8-4.4,15.8-11.9C219.8,50,213.1,47.8,205.1,45.8
	L205.1,45.8z M263.2,41.9c0-3.6-0.8-6.8-2.6-9.1c-2-2.7-5.4-4.3-10-4.3c-5.7,0-10.9,3.5-14.7,7.9V0.8h-12.7v5.6h6.3v56.9h-6.3v5.6
	h19v-5.6H236V41.5c3.5-3.9,8.1-7,13-7c2.7,0,4.8,0.8,6.1,2.5c1.2,1.4,1.8,3.3,1.8,6.2v20.1h-6.2v5.6h19.1v-5.6h-6.4V41.9
	C263.4,41.9,263.2,41.9,263.2,41.9z M288.4,0.8h-13.1v5.6h6.7v56.9h-6.7v5.6h19.8v-5.6h-6.7L288.4,0.8L288.4,0.8z M326.6,34.8h6.5
	l-11.3,25.5c0.1,0-11.2-25.5-11.2-25.5h6.2v-5.5h-18.5V35h5.5l14.9,31.7l-2.4,4.9c-1.1,2.2-2,4.2-3,5.6c-1.8,2.7-3.3,3.9-4.7,4.5
	c-0.6-1.8-2-3.4-4.2-3.4s-4,1.5-4,4.1c0,3.1,3.2,5.2,6.9,5.2c4,0,7.2-2.4,10.2-6.7c1.2-1.7,2.2-3.5,3.3-5.7L339.5,35h5.4v-5.7h-18.2
	L326.6,34.8L326.6,34.8L326.6,34.8z M417.1,27c0,12.5-9.1,19.9-22.7,19.9c-3.3,0-6.9-0.1-8.6-0.2v16.1h8.3v6.1h-23v-6.1h7.8V13.9
	H371V7.8h23.5C407.4,7.7,417.1,15.2,417.1,27z M410.1,27.1c0-8.4-6.8-13.2-15.5-13.2h-8.8v26.8c1.9,0.1,5.1,0.2,9,0.2
	C404.3,40.8,410.1,35.5,410.1,27.1z M431.4,19.2c2.7,0,5.1-2.3,5.1-5.1s-2.3-5.2-5-5.2c-2.8,0-5.2,2.4-5.2,5.2
	S428.6,19.2,431.4,19.2z M435.5,29.3h-13.1V35h6.7v28.3h-6.7v5.6h19.8v-5.6h-6.7L435.5,29.3L435.5,29.3z M476,41.5
	c0,2.8,2.1,4.4,4.3,4.4c2.9,0,5-2.4,5-5.4c0-5.9-7.2-11.9-16.2-11.9c-11.1,0-19.8,9.7-19.8,20.6c0,11.7,9,20.4,21,20.4
	c4.3,0,9.4-1.1,13.4-3.8l0.6-6.2c-4.6,3-8.7,4.4-13.2,4.4c-9,0-15.1-6-15.1-14.7c0-10.1,7.2-15.2,13.1-15.2c4,0,7.9,1.8,8.9,4.2
	C476.7,39,476,40.2,476,41.5L476,41.5z M513.5,34.7h7.7L504.7,49V0.9H492v5.6h6.3v56.9H492V69h19.1v-5.5h-6.4v-8.3l7.1-5.9L525,69
	h11v-5.6h-7.3l-12.3-17.7L528.9,35h7.1v-5.7h-22.4L513.5,34.7L513.5,34.7z M581,47.2c0,1.5-0.1,2.7-0.4,3.7h-30.5
	c0.9,8.7,6.7,13,15.2,13c5.3,0,9.3-1.7,13.9-4.4l-0.6,6.2c-4.1,2.5-9.2,3.8-14.2,3.8c-12.6,0-21.1-8.4-21.1-20.4
	c0-11,7.3-20.6,19.4-20.6C574.7,28.5,581,37.4,581,47.2L581,47.2z M574.5,45.8c-0.5-7-4.5-11.8-12-11.8c-6,0-11.3,4.3-12.3,11.8
	H574.5z M633.5,63.3v5.6h-12.6v-5.6c-3.3,3.7-7.4,6.3-13.3,6.3c-10.5,0-18.8-8.2-18.8-20.3c0-11.2,7.7-20.8,19.6-20.8
	c4.9,0,9.2,1.9,12.3,4.7V6.3h-7.4V0.7h13.8v62.5L633.5,63.3L633.5,63.3z M620.7,38.7c-3-2.5-6.7-4.6-11.9-4.6
	c-7.8,0-13.3,6.4-13.3,15.2c-0.1,8.8,5.5,14.8,13,14.8c5.1,0,9-2.6,12.2-5.9C620.7,58.2,620.7,38.7,620.7,38.7z"/>
</svg>
