<svg xmlns="http://www.w3.org/2000/svg" viewBox="0 0 986.67 79.7"><defs><style>.cls-1{fill:#fff;}</style></defs><title>Asset 2</title><g id="Layer_2" data-name="Layer 2"><g id="Layer_1-2" data-name="Layer 1"><g id="Layer_2-2" data-name="Layer 2"><g id="Layer_1-2-2" data-name="Layer 1-2"><path class="cls-1" d="M30.84,40c-5.06-.11-6,.92-5.86,6.44v14c-.23,10.12,3.1,14.72,10.92,15,1.5,0,2.07.35,2.07,1.5s-.69,1.72-2.87,1.72c-.58,0-1.84-.11-4-.34-3.79-.46-9.43-.81-11.84-.81-2.19,0-5,.23-13.34,1H5.2c-1,0-1.73-.69-1.73-2,0-.8.35-1.15,1.38-1.26a8.5,8.5,0,0,0,6.79-6.44C12,67.49,12,67,12.1,60V15.53C12.33,8.28,9.8,5.41,1.63,4.14.37,3.91,0,3.68,0,2.76A1.61,1.61,0,0,1,1.34.92a1.51,1.51,0,0,1,.52,0,30.34,30.34,0,0,1,3.68.35A77.29,77.29,0,0,0,16.81,2c1,0,1,0,8.28-.69A60.3,60.3,0,0,1,31.42.8c1.15,0,1.84.58,1.84,1.5s-.46,1.38-1.61,1.61c-4.72.57-6.79,3.22-6.67,8.4V26.68c-.23,7.25.23,7.71,6.21,7.71H57.41c4.48,0,5.06-1.27,4.94-9V15.53C62.7,8.28,59.94,5.29,51.89,4.25c-1.27-.25-1.61-.57-1.61-1.49A1.61,1.61,0,0,1,51.6.92a1.51,1.51,0,0,1,.52,0,30.34,30.34,0,0,1,3.68.35A82.29,82.29,0,0,0,67.64,2c.58,0,3.57-.23,7.71-.69A58.88,58.88,0,0,1,81.56.8c1.38,0,2,.47,2,1.62,0,.8-.46,1.26-1.61,1.49-4.71.57-6.78,3.22-6.67,8.4V60.49c-.34,10,3.11,14.84,10.81,14.95,1.61,0,2.19.35,2.19,1.5s-.69,1.72-2.88,1.72c-.57,0-1.84-.11-4-.34-3.68-.46-9.43-.81-11.85-.81-2.18,0-4.94.23-13.34,1h-.69c-1,0-1.72-.69-1.72-2,0-.8.34-1.15,1.38-1.26a8.46,8.46,0,0,0,6.78-6.44c.35-1.27.35-1.73.46-8.74V47.84c0-7.13-.46-7.93-4.94-7.82Z"/><path class="cls-1" d="M185.29,36.92c0,12.76-5.18,25.41-13.69,33.23-6.67,6.1-16.44,9.55-27.25,9.55-24.39,0-40-15.3-40-39.1,0-11.39,5-23.23,12.42-30S134.92,0,146.19,0C169.53,0,185.29,14.84,185.29,36.92Zm-67.17-1.5c0,23.92,11.62,40.14,28.76,40.14,7.24,0,14.37-3.45,18.28-8.74,4.26-5.75,7-15.3,7-24.61,0-10.93-3.8-21.74-10-29a27.35,27.35,0,0,0-20-9C127.21,4.25,118.12,16,118.12,35.42Z"/><path class="cls-1" d="M228.29,56.58c.12,16,1.38,18.06,11.62,19a1.3,1.3,0,0,1,1.49,1.49c0,1-.57,1.61-2.18,1.61l-1.61-.11-3.68-.12c-6.44-.34-6.44-.34-8.4-.34a116.62,116.62,0,0,0-13.34.8c-1.26.12-2.87.23-3.68.23-1.26,0-1.72-.34-1.72-1.38a1.52,1.52,0,0,1,1.38-1.61c5.63-1.15,7.36-4.94,7.24-15.41V17.48C215.53,9,213.23,6,204.72,4.37c-1.5-.12-2.07-.69-2.07-1.72S203.34,1,205.41,1l2.3.11c3.56.23,9.43.46,13.91.46,4.26,0,4.26,0,13-.57,2.07-.08,4.4-.2,6.32-.2,9.43,0,15.87,1.62,20.93,5.41A20.28,20.28,0,0,1,270,22.43c0,12.07-10.58,21.73-23.69,21.73-7.13,0-13.46-1.72-13.46-3.68a1.54,1.54,0,0,1,1.38-1.61,2.88,2.88,0,0,1,.92.12,18.84,18.84,0,0,0,6,.92c9,0,15.41-6.56,15.41-15.64a20.19,20.19,0,0,0-6-14.84c-3.22-3.1-6.78-4.48-12-4.48-4.37,0-7.59.92-9,2.53-1,1-1.38,2.87-1.38,6.44Z"/><path class="cls-1" d="M308,26.57c0,7.13.57,8,4.37,8l4.25-.12h4.72c4.48-.11,7-2.3,10-8.85A1.49,1.49,0,0,1,333,24.45c.8,0,1.26.46,1.26,1.38,0,.46-.12,1.49-.23,2.64a21.36,21.36,0,0,0-.11,2.65c0,1.15,0,1.15.57,8.28.23,3,.35,7.24.35,10.46,0,1-.35,1.38-1.16,1.38-1,0-1.49-.57-1.72-2.07-2.07-8.74-3.79-9.66-17.48-9.43-3.8,0-5.06.35-5.64,2s-.57,2.64-.8,11V57.8c0,4.37.57,9.54,1.26,11.38,1.27,3.45,2.65,4.37,6.21,4.37,10.58,0,18.17-2.07,23.93-6.67a18.94,18.94,0,0,0,5.86-7.24q.35-.69.69-.69a1.45,1.45,0,0,1,1.5,1.4v.09a24.34,24.34,0,0,1-4,12.42c-3.45,4.72-7.59,6.44-15,6.44-3.34,0-4,0-14.49-1-2.42-.23-5.41-.35-9.2-.35-4,0-4.37,0-12.88.46l-3.34.12c-1,0-1.49-.35-1.49-1.27,0-.69.34-1.15,1.26-1.49,5.06-1.38,6.79-5.18,6.79-15.53V15.76c0-8.51-2-10.58-10.58-11.74-1.15-.11-1.5-.46-1.5-1.6,0-.81.58-1.27,1.73-1.27l1.84.12,2.76.11c9.54.23,15.06.35,28.75.35,5.29,0,18.06-.23,20.82-.46h.92c1.15,0,1.49.46,1.49,1.83.12,1.15.23,2.77.35,4.61a63,63,0,0,1,.46,7c0,2.65-.92,4.37-2.19,4.37-.8,0-1-.46-1.15-2.53,0-7.36-5.52-10.69-17.6-10.46h-5.35c-7.24,0-7.93.8-7.93,8.39Z"/><path class="cls-1" d="M445,3.1c4.26,1.62,4.37,1.62,5.41,1.62.8,0,.8,0,2.76-1.39a2.18,2.18,0,0,1,.9-.23c.8,0,1.26.81,1.26,2.65a11.3,11.3,0,0,1-.11,1.84c-.12,1.61-.12,2.65-.12,3a64.69,64.69,0,0,0,1.61,10.81,5,5,0,0,1,.23,1.15c0,.58-.69,1-1.49,1-1,0-1.61-.69-2.07-2.53a30,30,0,0,0-5.06-9.78c-4-4.25-8.86-6.79-13.11-6.79-4.72,0-8.63,3.46-8.63,7.6,0,7.47,8.28,19.66,22.08,32.66,9.91,9.34,16.12,14.29,18,14.29,2.19,0,5.06-6.56,5.06-11.5,0-3.45-1-6.56-2.87-8.28-1.27-1.27-2.53-1.61-6.33-2-3.1-.23-4.25-.8-4.25-1.84,0-.8.46-1.26,1.61-1.26.69,0,.69,0,7,.34.92.12,2.65.12,5,.12a25.26,25.26,0,0,0,7.25-.69,5.33,5.33,0,0,1,1.26-.12c1.15,0,1.73.46,1.73,1.5,0,.8-.35,1.15-1.27,1.49-2.64.81-2.88,1.15-3,4.6-.11,3.91-1,7.25-3.11,11.85-2.41,5.63-2.87,6.9-2.87,7.7,0,2.07,2.42,4.6,7.25,7.36s8,3.91,12,3.91c2.53,0,2.53,0,7.47-1.38a2.4,2.4,0,0,1,.92-.11,1.18,1.18,0,0,1,1.27,1c0,2.53-10.81,6.44-17.49,6.44-5.29,0-11.61-1.61-18.28-4.71a6.12,6.12,0,0,0-2.53-.81,6.66,6.66,0,0,0-2.3.69c-10.47,4.49-16.1,5.87-24.73,5.87-19.32,0-32.54-10.93-32.54-26.91a23.3,23.3,0,0,1,13.45-21.62c1.84-.92,2.53-1.61,2.53-2.42a4.49,4.49,0,0,0-.46-1.72,22.64,22.64,0,0,1-1.61-8c0-10,7.71-17.48,18.06-17.48A28.32,28.32,0,0,1,445,3.1ZM414.59,35a9.24,9.24,0,0,0-3,7c0,4.71,4.14,13.11,9.2,19,6.9,7.82,16.22,12.31,25.76,12.31,5.87,0,10.93-2,10.93-4.26,0-.92-.81-1.72-2.88-3.22-14.6-10.23-26-21.39-31.39-30.36-1.5-2.64-2.3-3.45-3.34-3.56S416.66,33.24,414.59,35Z"/><path class="cls-1" d="M571.57,40c-5.06-.11-6,.92-5.87,6.44v14c-.23,10.12,3.11,14.72,10.93,15,1.49,0,2.07.35,2.07,1.5s-.69,1.72-2.88,1.72c-.57,0-1.84-.11-4-.34-3.8-.46-9.43-.81-11.85-.81-2.18,0-5,.23-13.34,1h-.69c-1,0-1.73-.69-1.73-2,0-.8.35-1.15,1.39-1.26a8.49,8.49,0,0,0,6.78-6.44c.35-1.27.35-1.73.46-8.74V15.53c.23-7.25-2.3-10.12-10.47-11.39-1.26-.23-1.61-.46-1.61-1.38A1.61,1.61,0,0,1,542.08.92a1.68,1.68,0,0,1,.5,0,30.34,30.34,0,0,1,3.68.35A77.43,77.43,0,0,0,557.54,2c1,0,1,0,8.28-.69,2-.23,5.52-.47,6.32-.47,1.15,0,1.84.58,1.84,1.5s-.46,1.38-1.61,1.61c-4.71.57-6.78,3.22-6.67,8.4V26.68c-.23,7.25.23,7.71,6.21,7.71h26.22c4.49,0,5.06-1.27,5-9V15.53c.34-7.25-2.42-10.24-10.47-11.28C591.35,4,591,3.68,591,2.76A1.61,1.61,0,0,1,592.34.92a1.68,1.68,0,0,1,.5,0,30.34,30.34,0,0,1,3.68.35A82.43,82.43,0,0,0,608.37,2c.57,0,3.56-.23,7.7-.69A59.29,59.29,0,0,1,622.28.8c1.38,0,2,.47,2,1.62,0,.8-.46,1.26-1.61,1.49-4.72.57-6.79,3.22-6.67,8.4V60.49c-.35,10,3.1,14.84,10.81,14.95,1.61,0,2.18.35,2.18,1.5s-.69,1.72-2.87,1.72c-.58,0-1.84-.11-4-.34-3.68-.46-9.43-.81-11.84-.81-2.19,0-5,.23-13.34,1h-.69c-1,0-1.73-.69-1.73-2,0-.8.35-1.15,1.38-1.26a8.5,8.5,0,0,0,6.79-6.44c.34-1.27.34-1.73.46-8.74V47.84c0-7.13-.46-7.93-4.95-7.82Z"/><path class="cls-1" d="M667.71,26.57c0,7.13.57,8,4.37,8l4.25-.12H681c4.49-.11,7-2.3,10-8.85a1.49,1.49,0,0,1,1.61-1.15c.81,0,1.27.46,1.27,1.38,0,.46-.12,1.49-.23,2.64a19.52,19.52,0,0,0-.12,2.65c0,1.15,0,1.15.58,8.28.23,3,.34,7.24.34,10.46,0,1-.34,1.38-1.15,1.38-1,0-1.49-.57-1.72-2.07-2.07-8.74-3.8-9.66-17.49-9.43-3.79,0-5.06.35-5.63,2s-.58,2.64-.8,11V57.8c0,4.37.57,9.54,1.26,11.38,1.26,3.45,2.65,4.37,6.21,4.37,10.58,0,18.17-2.07,23.92-6.67A19,19,0,0,0,705,59.69q.35-.69.69-.69a1.43,1.43,0,0,1,1.49,1.39v.1a24.44,24.44,0,0,1-4,12.42c-3.45,4.72-7.59,6.44-15,6.44-3.34,0-4,0-14.5-1-2.41-.23-5.4-.35-9.2-.35-4,0-4.37,0-12.88.46l-3.33.12c-1,0-1.5-.35-1.5-1.27,0-.69.35-1.15,1.27-1.49,5.06-1.38,6.78-5.18,6.78-15.53V15.76c0-8.51-2-10.58-10.58-11.74-1.15-.11-1.49-.46-1.49-1.6,0-.81.57-1.27,1.72-1.27l1.84.12,2.76.11c9.55.23,15.07.35,28.76.35,5.29,0,18-.23,20.81-.46h.92c1.15,0,1.5.46,1.5,1.83.11,1.15.23,2.77.34,4.61a63,63,0,0,1,.46,7c0,2.65-.92,4.37-2.18,4.37-.81,0-1-.46-1.15-2.53,0-7.36-5.52-10.69-17.6-10.46h-5.29c-7.25,0-7.93.8-7.93,8.39Z"/><path class="cls-1" d="M786.5,47.61c4.6,5.18,6,6.33,6.9,6.33.69,0,1-.58,1.27-1.5s.57-19.89.57-26.22c0-17-2.64-21.5-13.11-22.43-1.38-.11-1.84-.46-1.84-1.26,0-1,.46-1.49,1.61-1.49a51.39,51.39,0,0,1,6.56.57,39.13,39.13,0,0,0,4.71.35,109.8,109.8,0,0,0,12.42-1A10.32,10.32,0,0,1,807.43.8c1,0,1.61.47,1.61,1.5s-.46,1.49-1.84,1.84c-5.29,1.15-7.59,6-7.24,15.53l-.81,35.07c-.23,6.67-.23,6.79-.23,8.74,0,5.06.12,10.7.23,12.77v.8c0,1-.34,1.5-1.15,1.5a3.45,3.45,0,0,1-2.07-1.27L744.75,20.59c-1.26-1.38-1.38-1.5-1.84-1.5-1,0-1.38,1-1.38,4.26V45.08c.23,26.34,1.27,28.87,12.65,30.48,1.27.11,1.73.57,1.73,1.49a1.46,1.46,0,0,1-1.29,1.61,1.71,1.71,0,0,1-.32,0c-.35,0-1.38-.11-2.3-.23a79.6,79.6,0,0,0-10.35-.8,71.62,71.62,0,0,0-10.24.8,18.3,18.3,0,0,1-2.87.35q-1.5,0-1.5-1.38c0-.92.35-1.15,1.61-1.5,7.36-3.1,7.71-4.25,8.28-28.75V22.77c.23-10.92-4.6-17.82-12.76-18.17-1.27-.12-1.73-.46-1.73-1.38a1.55,1.55,0,0,1,1.73-1.61l3.79.12c4.6,0,8.28-.12,12-.46,1.15-.12,2.3-.23,3.22-.23,2.07,0,2.53.34,5.75,4l4.26,5.06c2.41,2.76,3.22,3.8,3.56,4.14Z"/><path class="cls-1" d="M853.08,56.35c0,14.38,1.73,17.71,9.78,18.86,1.72.12,2.3.58,2.3,1.84s-.46,1.5-1.84,1.5l-2.42-.12c-3.56-.34-6.55-.46-9.31-.46a90.34,90.34,0,0,0-11.39.69c-3.1.35-5.17.46-6.09.46-1.38,0-1.84-.34-1.84-1.61,0-1,.11-1.15,1.15-1.49,6-1.73,6.9-3.68,6.78-14.49V18.63c.35-8.85-2.18-12.07-10.69-13.57-1.73-.23-2.3-.69-2.3-2,0-1,.46-1.49,1.38-1.49a15.85,15.85,0,0,1,2.18.12c2.53.23,6.44.46,9.09.46,3.33,0,10-.23,14.14-.58,5.87-.46,10.81-.69,13.11-.69,14.26,0,24.73,8.63,24.73,20.47,0,7.48-4.14,13.46-11.73,16.91-.69.34-1,.69-1,1.15a3.19,3.19,0,0,0,.58,1.38c.11.23.8,1.38,1.49,2.64,1.61,2.76,3.8,6.67,5,8.86L892,62.52c3.91,6.9,6.56,9.32,10.7,9.32a19.62,19.62,0,0,0,2.42-.23,9.28,9.28,0,0,1,1.26-.23,1.16,1.16,0,0,1,1,1.26c0,2.19-7.94,5.87-12.66,5.87-4.25,0-8-2.19-11.5-6.33C880.68,69,875.62,60,871.37,51.41c-3.22-6.44-4.14-7.71-6.44-8.74-1.61-.69-3.11-.81-8.63-.81-3.1,0-3.22.23-3.22,4.6Zm0-26.1c.12,4.48.12,4.48.58,5.52.69,1.26,1.61,1.61,4.37,1.61,13.8,0,14.49-.12,17.25-2.65a12.51,12.51,0,0,0,4.14-9.89c0-11.61-8.17-19.78-19.55-19.78-5.29,0-6.79,1.73-6.79,7.36Z"/><path class="cls-1" d="M956.47,62.56c-.23,9.78,1.49,11.62,11.5,12.77,1.38.11,1.84.46,1.84,1.72s-.58,1.5-2.88,1.5c-1.15,0-1.15,0-10.58-.81-1.49-.11-3.68-.23-7.13-.23a118.86,118.86,0,0,0-13.34.58c-2.3.34-3.1.46-3.56.46-.81,0-1.15-.35-1.15-1.5s.23-1.38,1.49-1.61c8.74-1.61,10.7-4.25,10.81-14.6V50.14c-.11-3.33-.46-4.48-2.41-7.82-2-3.1-4.14-7-6.56-11.5-2.87-5.4-5.63-10.81-8.51-16.1-3.79-7-6.78-9.54-12-10.35-1.61-.23-2.07-.58-2.07-1.49,0-1.27.58-1.84,1.61-1.84.69,0,2.3.11,9.09.8,1.61.12,3.79.23,6.09.23a89.94,89.94,0,0,0,9.43-.46c2.88-.23,3.91-.34,4.72-.34,1.61,0,2.3.46,2.3,1.38s-.46,1.26-1.84,1.6c-2.88.58-4.37,2-4.37,3.8s.8,3.91,4.14,10.24c1,2.07,4.94,9.66,7.7,15.06,1.38,2.76,2.42,3.91,3.57,3.91s2.53-1.49,4.83-5.75,3.56-6.67,3.68-6.78c4.83-8.86,6.21-11.85,6.21-13.8,0-3.34-4.14-6.56-9.09-7-1.26-.12-1.72-.46-1.72-1.26,0-1.38.46-1.85,1.84-1.85,1.15,0,1.15,0,6.21.7a35.2,35.2,0,0,0,5.52.34c1.95,0,1.95,0,8.85-.46a30.1,30.1,0,0,1,3.8-.11h.69c.92,0,1.49.46,1.49,1.26s-.57,1.26-2.07,1.61c-6.55,2.3-8.28,4.14-13.34,14.26-3.91,7.48-9.89,17.94-13.22,23.12-1.61,2.64-1.61,2.64-1.61,6.55Z"/></g></g></g></g></svg>