<?xml version="1.0" encoding="UTF-8"?>
<svg width="76px" height="79px" viewBox="0 0 76 79" version="1.1" xmlns="http://www.w3.org/2000/svg" xmlns:xlink="http://www.w3.org/1999/xlink">
    <title>icon-brand-red</title>
    <defs>
        <path d="M26.276,4.39066667 C24.7,2.81466667 19.028,1.55431223e-15 13.3333333,1.55431223e-15 C7.63866663,1.55431223e-15 1.96666666,2.81466667 0.39066666,4.39066667 C0.14,4.64 4.4408921e-16,4.98 4.4408921e-16,5.33333334 L4.4408921e-16,8 C4.4408921e-16,18.2253334 7.44800003,26.548 12.7373333,29.1933334 C12.924,29.2866667 13.1293333,29.3333334 13.3333333,29.3333334 C13.5373333,29.3333334 13.7426666,29.2866667 13.9293333,29.1933334 C19.2186666,26.548 26.6666666,18.2253334 26.6666666,8 L26.6666666,5.33333334 C26.6666666,4.98 26.5266666,4.64 26.276,4.39066667 Z M20.9426666,10.276 L12.9426666,18.276 C12.6826666,18.536 12.3413333,18.6666667 12,18.6666667 C11.6586666,18.6666667 11.3173333,18.536 11.0573333,18.276 L7.05733333,14.276 C6.536,13.7546667 6.536,12.912 7.05733333,12.3906667 C7.57866663,11.8693334 8.42133333,11.8693334 8.94266663,12.3906667 L12,15.448 L19.0573333,8.39066667 C19.5786666,7.86933334 20.4213333,7.86933334 20.9426666,8.39066667 C21.464,8.91199997 21.464,9.75466667 20.9426666,10.276 Z" id="path-1"></path>
    </defs>
    <g id="Symbols" stroke="none" stroke-width="1" fill="none" fill-rule="evenodd">
        <g id="icon-brand-red" transform="translate(0.000000, 0.220021)">
            <path d="M29.29,26.16 L40.46,26.16 L40.46,18.6 C40.46,18.17 40.27,17.76 39.93,17.49 L23.61,4.28 C23.08,3.86 22.34,3.86 21.81,4.28 L5.49,17.49 C5.15,17.76 4.96,18.17 4.96,18.6 L4.96,60.77 C4.96,61.56 5.6,62.21 6.4,62.21 L29.3,62.21 L29.29,26.16 L29.29,26.16 Z M22.69,21.15 C21.11,21.15 19.83,19.87 19.83,18.29 C19.83,16.71 21.11,15.43 22.69,15.43 C24.27,15.43 25.55,16.71 25.55,18.29 C25.55,19.87 24.27,21.15 22.69,21.15 L22.69,21.15 Z" id="Shape" fill="#A6C47A" fill-rule="nonzero"></path>
            <path d="M73.99,78.42 L29.29,78.42 C28.55,78.42 27.94,77.82 27.94,77.07 L27.94,26.17 C27.94,25.43 28.54,24.82 29.29,24.82 L44.84,24.82 C45.58,24.82 46.19,25.42 46.19,26.17 C46.19,26.91 45.59,27.52 44.84,27.52 L30.63,27.52 L30.63,75.74 L72.65,75.74 L72.65,34.52 C72.65,33.78 73.25,33.17 74,33.17 C74.74,33.17 75.35,33.77 75.35,34.52 L75.35,77.08 C75.34,77.83 74.74,78.42 73.99,78.42 Z" id="Path" fill="#151D26" fill-rule="nonzero"></path>
            <path d="M44.83,36.48 L37.37,36.48 C36.63,36.48 36.02,35.88 36.02,35.13 C36.02,34.39 36.62,33.78 37.37,33.78 L44.82,33.78 C45.56,33.78 46.17,34.38 46.17,35.13 C46.17,35.87 45.57,36.48 44.83,36.48 L44.83,36.48 Z" id="Path" fill="#A6C47A" fill-rule="nonzero"></path>
            <path d="M65.9,44.56 L37.38,44.56 C36.64,44.56 36.03,43.96 36.03,43.21 C36.03,42.46 36.63,41.86 37.38,41.86 L65.9,41.86 C66.64,41.86 67.25,42.46 67.25,43.21 C67.25,43.96 66.65,44.56 65.9,44.56 Z" id="Path" fill="#A6C47A" fill-rule="nonzero"></path>
            <path d="M65.9,52.65 L37.38,52.65 C36.64,52.65 36.03,52.05 36.03,51.3 C36.03,50.55 36.63,49.95 37.38,49.95 L65.9,49.95 C66.64,49.95 67.2502395,50.55 67.2502395,51.3 C67.26,52.05 66.65,52.65 65.9,52.65 Z" id="Path" fill="#A6C47A" fill-rule="nonzero"></path>
            <path d="M65.9,60.74 L37.38,60.74 C36.64,60.74 36.03,60.14 36.03,59.39 C36.03,58.65 36.63,58.04 37.38,58.04 L65.9,58.04 C66.64,58.04 67.25,58.64 67.25,59.39 C67.25,60.14 66.65,60.74 65.9,60.74 Z" id="Path" fill="#A6C47A" fill-rule="nonzero"></path>
            <path d="M48.77,68.83 L37.38,68.83 C36.64,68.83 36.03,68.23 36.03,67.48 C36.03,66.74 36.63,66.13 37.38,66.13 L48.77,66.13 C49.51,66.13 50.12,66.73 50.12,67.48 C50.11,68.23 49.51,68.83 48.77,68.83 Z" id="Path" fill="#A6C47A" fill-rule="nonzero"></path>
            <path d="M21.91,61.32 L1.35,61.32 C0.61,61.32 0.01,60.74 0,60 L0,15.69 C0,15.28 0.18,14.9 0.5,14.64 L18.25,0.3 C18.75,-0.1 19.45,-0.1 19.95,0.3 L37.7,14.68 C38.02,14.94 38.2,15.32 38.2,15.73 L38.2,19.68 C38.2,20.42 37.6,21.03 36.85,21.03 C36.1,21.03 35.5,20.43 35.5,19.68 L35.5,16.34 L19.1,3.08 L2.7,16.34 L2.7,58.64 L21.92,58.64 C22.66,58.64 23.27,59.24 23.27,59.99 C23.26,60.72 22.66,61.32 21.91,61.32 Z" id="Path" fill="#151D26" fill-rule="nonzero"></path>
            <path d="M19.1,21 C16.37,21 14.16,18.78 14.16,16.06 C14.16,13.34 16.38,11.12 19.1,11.12 C21.82,11.12 24.04,13.34 24.04,16.06 C24.04,18.78 21.83,20.99 19.1,21 Z M19.1,13.8 C17.86,13.8 16.85,14.81 16.85,16.05 C16.85,17.29 17.86,18.3 19.1,18.3 C20.34,18.3 21.35,17.29 21.35,16.05 C21.35,14.81 20.34,13.8 19.1,13.8 Z" id="Shape" fill="#151D26" fill-rule="nonzero"></path>
            <g id="↳-icon-tint-Clipped" transform="translate(48.666667, 4.113312)">
                <mask id="mask-2" fill="white">
                    <use xlink:href="#path-1"></use>
                </mask>
                <g id="path-1"></g>
                <rect id="↳-icon-tint" fill="#161E2D" fill-rule="nonzero" mask="url(#mask-2)" x="-2.66666667" y="-1.33333333" width="32" height="32"></rect>
            </g>
        </g>
    </g>
</svg>