<?xml version="1.0" encoding="UTF-8"?>
<svg width="14px" height="15px" viewBox="0 0 14 15" version="1.1" xmlns="http://www.w3.org/2000/svg" xmlns:xlink="http://www.w3.org/1999/xlink">
    <title>icon-magic-sparkle-dark</title>
    <defs>
        <path d="M5.625,4.6875 C5.625,4.86 5.485,5 5.3125,5 C4.10625,5 3.125,5.98125 3.125,7.1875 C3.125,7.36 2.985,7.5 2.8125,7.5 C2.64,7.5 2.5,7.36 2.5,7.1875 C2.5,5.98125 1.51875,5 0.3125,5 C0.14,5 0,4.86 0,4.6875 C0,4.515 0.14,4.375 0.3125,4.375 C1.51875,4.375 2.5,3.39375 2.5,2.1875 C2.5,2.015 2.64,1.875 2.8125,1.875 C2.985,1.875 3.125,2.015 3.125,2.1875 C3.125,3.39375 4.10625,4.375 5.3125,4.375 C5.485,4.375 5.625,4.515 5.625,4.6875 Z M12.8125,2.5 C11.6062,2.5 10.625,1.51875 10.625,0.3125 C10.625,0.14 10.485,0 10.3125,0 C10.14,0 10,0.14 10,0.3125 C10,1.51875 9.01875,2.5 7.8125,2.5 C7.64,2.5 7.5,2.64 7.5,2.8125 C7.5,2.985 7.64,3.125 7.8125,3.125 C9.01875,3.125 10,4.10625 10,5.3125 C10,5.485 10.14,5.625 10.3125,5.625 C10.485,5.625 10.625,5.485 10.625,5.3125 C10.625,4.10625 11.6062,3.125 12.8125,3.125 C12.985,3.125 13.125,2.985 13.125,2.8125 C13.125,2.64 12.985,2.5 12.8125,2.5 Z" id="path-1"></path>
        <path d="M7.8125,3.75 C5.9169,3.75 4.375,2.20813 4.375,0.3125 C4.375,0.14 4.235,0 4.0625,0 C3.89,0 3.75,0.14 3.75,0.3125 C3.75,2.20813 2.20813,3.75 0.3125,3.75 C0.14,3.75 0,3.89 0,4.0625 C0,4.235 0.14,4.375 0.3125,4.375 C2.20813,4.375 3.75,5.9169 3.75,7.8125 C3.75,7.985 3.89,8.125 4.0625,8.125 C4.235,8.125 4.375,7.985 4.375,7.8125 C4.375,5.9169 5.9169,4.375 7.8125,4.375 C7.985,4.375 8.125,4.235 8.125,4.0625 C8.125,3.89 7.985,3.75 7.8125,3.75 Z" id="path-3"></path>
    </defs>
    <g id="Page-1" stroke="none" stroke-width="1" fill="none" fill-rule="evenodd">
        <g id="icon-magic-sparkle-dark" transform="translate(0.625000, 0.625000)">
            <g id="Clipped">
                <mask id="mask-2" fill="white">
                    <use xlink:href="#path-1"></use>
                </mask>
                <g id="Shape"></g>
                <polygon id="Path" fill="#161E2D" fill-rule="nonzero" mask="url(#mask-2)" points="14.375 -0.625 -0.625 -0.625 -0.625 14.375 14.375 14.375"></polygon>
            </g>
            <g id="Clipped" transform="translate(3.750000, 5.625000)">
                <mask id="mask-4" fill="white">
                    <use xlink:href="#path-3"></use>
                </mask>
                <g id="Path"></g>
                <polygon id="Path" fill="#161E2D" fill-rule="nonzero" mask="url(#mask-4)" points="10.625 -6.25 -4.375 -6.25 -4.375 8.75 10.625 8.75"></polygon>
            </g>
        </g>
    </g>
</svg>