<?xml version="1.0" encoding="UTF-8"?>
<svg width="80px" height="68px" viewBox="0 0 80 68" version="1.1" xmlns="http://www.w3.org/2000/svg" xmlns:xlink="http://www.w3.org/1999/xlink">
    <title>icon-shapes-red</title>
    <g id="Symbols" stroke="none" stroke-width="1" fill="none" fill-rule="evenodd">
        <g id="icon-shapes-red" transform="translate(0.000000, 0.390000)" fill-rule="nonzero">
            <path d="M18.57,41.17 L5.15,63.94 C4.66,64.78 4.95,65.86 5.8,66.35 C6.06,66.5 6.37,66.58 6.67,66.59 L33.5,66.59 C34.48,66.58 35.26,65.79 35.2501884,64.81 C35.2501884,64.51 35.17,64.2 35.01,63.94 L21.61,41.17 C21.11,40.33 20.03,40.05 19.19,40.54 C18.94,40.69 18.72,40.91 18.57,41.17 Z" id="Path" fill="#A6C47A"></path>
            <path d="M41.21,44.9 C41.21,35.49 48.27,27.59 57.6,26.52 L57.6,6.39 C57.6,5.41 56.81,4.63 55.84,4.63 L35.42,4.63 C34.44,4.63 33.66,5.42 33.66,6.39 L33.66,54.87 C33.66,55.85 34.45,56.63 35.42,56.63 L45.38,56.63 C42.66,53.32 41.19,49.18 41.21,44.9 Z" id="Path" fill="#A6C47A"></path>
            <circle id="Oval" fill="#A6C47A" cx="61.49" cy="48.67" r="18.51"></circle>
            <path d="M59.72,64.73 C48.77,64.73 39.89,55.85 39.89,44.9 C39.89,33.95 48.77,25.07 59.72,25.07 C70.67,25.07 79.55,33.95 79.55,44.9 C79.54,55.84 70.66,64.71 59.72,64.73 Z M59.72,27.71 C50.22,27.71 42.53,35.41 42.53,44.9 C42.53,54.39 50.23,62.08 59.72,62.08 C69.21,62.08 76.91,54.38 76.91,44.89 C76.9,35.4 69.21,27.71 59.72,27.69 L59.72,27.71 Z" id="Shape" fill="#151D26"></path>
            <path d="M30.49,43.67 C29.76,43.67 29.17,43.08 29.17,42.35 L29.17,1.32 C29.17,0.59 29.76,0 30.49,0 L54.43,0 C55.16,0 55.75,0.59 55.75,1.32 L55.75,19.52 C55.75,20.25 55.16,20.84 54.43,20.84 C53.7,20.84 53.11,20.25 53.11,19.52 L53.11,2.64 L31.81,2.64 L31.81,42.3 C31.83,43.03 31.25,43.64 30.52,43.66 C30.51,43.67 30.5,43.67 30.49,43.67 Z" id="Path" fill="#151D26"></path>
            <path d="M34.32,64.73 L1.32,64.73 C0.59,64.73 0,64.14 0,63.4 C0,63.17 0.06,62.94 0.18,62.74 L16.68,34.73 C16.92,34.33 17.35,34.08 17.82,34.07 L17.82,34.07 C18.28,34.07 18.72,34.32 18.96,34.73 L35.46,62.74 C35.83,63.37 35.62,64.18 34.99,64.55 C34.78,64.67 34.56,64.73 34.32,64.73 Z M3.63,62.08 L32.01,62.08 L17.82,38 L3.63,62.08 Z" id="Shape" fill="#151D26"></path>
        </g>
    </g>
</svg>