<?xml version="1.0" encoding="UTF-8"?>
<svg width="87px" height="77px" viewBox="0 0 87 77" version="1.1" xmlns="http://www.w3.org/2000/svg" xmlns:xlink="http://www.w3.org/1999/xlink">
    <title>icon-chat-red</title>
    <g id="Symbols" stroke="none" stroke-width="1" fill="none" fill-rule="evenodd">
        <g id="icon-chat-red" fill-rule="nonzero">
            <path d="M36.437,20.25 C36.437,18.594 37.78,17.25 39.437,17.25 C41.094,17.25 42.437,18.594 42.437,20.25 C42.437,21.907 41.094,23.25 39.437,23.25 C37.78,23.25 36.437,21.907 36.437,20.25 Z M28.312,23.25 C26.655,23.25 25.312,21.907 25.312,20.25 C25.312,18.594 26.655,17.25 28.312,17.25 C29.969,17.25 31.312,18.594 31.312,20.25 C31.312,21.907 29.969,23.25 28.312,23.25 Z M17.187,23.25 C15.53,23.25 14.187,21.907 14.187,20.25 C14.187,18.594 15.53,17.25 17.187,17.25 C18.844,17.25 20.187,18.594 20.187,20.25 C20.187,21.907 18.844,23.25 17.187,23.25 Z M50.624,29.75 L56.965,29.75 C57.783,27.652 58.25,25.38 58.25,23 C58.25,12.688 49.812,4.25 39.5,4.25 L23.374,4.25 C13.062,4.25 4.625,12.688 4.625,23 C4.625,32.142 11.259,39.796 19.948,41.42 L19.948,48.02 C19.948,48.91 21.025,49.357 21.655,48.727 L28.631,41.75 L33.159,41.75 C35.885,34.752 42.691,29.75 50.624,29.75 L50.624,29.75 Z" id="Fill-2" fill="#A6C47A"></path>
            <path d="M69.901,65.446 C69.191,65.578 68.676,66.198 68.676,66.92 L68.676,72.313 L62.554,66.19 C62.272,65.908 61.891,65.75 61.493,65.75 L50.624,65.75 C41.113,65.75 33.374,58.012 33.374,48.5 C33.374,38.989 41.113,31.25 50.624,31.25 L66.75,31.25 C76.261,31.25 83.999,38.989 83.999,48.5 C83.999,56.792 78.07,63.919 69.901,65.446 Z M66.75,28.25 L50.624,28.25 C39.459,28.25 30.375,37.334 30.375,48.5 C30.375,59.666 39.459,68.75 50.624,68.75 L60.872,68.75 L67.409,75.287 C67.888,75.767 68.524,76.021 69.173,76.021 C69.496,76.021 69.822,75.958 70.133,75.829 C71.07,75.441 71.676,74.534 71.676,73.519 L71.676,68.127 C80.627,65.879 87,57.817 87,48.5 C87,37.334 77.916,28.25 66.75,28.25 L66.75,28.25 Z" id="Fill-3" fill="#151D26"></path>
            <path d="M28.311,37.5 L25.506,37.5 C25.108,37.5 24.727,37.658 24.446,37.94 L18.323,44.063 L18.323,38.67 C18.323,37.948 17.809,37.328 17.099,37.196 C8.929,35.669 3,28.542 3,20.25 C3,10.739 10.738,3 20.249,3 L36.374,3 C45.886,3 53.625,10.739 53.625,20.25 C53.625,21.544 53.479,22.835 53.192,24.086 C53.006,24.894 53.511,25.698 54.318,25.884 C55.124,26.074 55.931,25.566 56.116,24.758 C56.453,23.286 56.625,21.77 56.625,20.25 C56.625,9.084 47.541,0 36.374,0 L20.249,0 C9.083,0 0,9.084 0,20.25 C0,29.566 6.372,37.629 15.323,39.877 L15.323,45.269 C15.323,46.284 15.929,47.191 16.867,47.579 C17.178,47.708 17.503,47.771 17.826,47.771 C18.475,47.771 19.112,47.517 19.591,47.037 L26.128,40.5 L28.311,40.5 C29.14,40.5 29.811,39.828 29.811,39 C29.811,38.172 29.14,37.5 28.311,37.5" id="Fill-4" fill="#151D26"></path>
            <path d="M62.527,47.375 C63.632,47.375 64.527,46.48 64.527,45.375 C64.527,44.271 63.632,43.375 62.527,43.375 C61.423,43.375 60.527,44.271 60.527,45.375 C60.527,46.48 61.423,47.375 62.527,47.375" id="Fill-5" fill="#151D26"></path>
            <path d="M53.972,47.375 C55.076,47.375 55.972,46.48 55.972,45.375 C55.972,44.271 55.076,43.375 53.972,43.375 C52.867,43.375 51.972,44.271 51.972,45.375 C51.972,46.48 52.867,47.375 53.972,47.375" id="Fill-6" fill="#151D26"></path>
            <path d="M64.264,51.667 C63.667,51.092 62.718,51.113 62.143,51.709 C61.103,52.79 59.72,53.386 58.249,53.386 C56.777,53.386 55.394,52.79 54.354,51.709 C53.779,51.112 52.83,51.091 52.233,51.667 C51.636,52.24 51.617,53.191 52.191,53.787 C53.802,55.463 55.953,56.386 58.249,56.386 C60.544,56.386 62.695,55.463 64.306,53.787 C64.88,53.191 64.861,52.24 64.264,51.667" id="Fill-7" fill="#151D26"></path>
        </g>
    </g>
</svg>