<svg xmlns="http://www.w3.org/2000/svg" viewBox="0 0 196.41 15.82"><defs><style>.cls-1{fill:#161e2d;}</style></defs><g id="Layer_2" data-name="Layer 2"><g id="Layer_1-2" data-name="Layer 1"><path class="cls-1" d="M0,.29H3.31l6,10.54V.29h2.94V15.4H9.1L2.94,4.68V15.4H0Z"/><path class="cls-1" d="M29.81,3h-8V6.17h7.34V8.8H21.81v3.88h8.37V15.4H18.73V.29H29.81Z"/><path class="cls-1" d="M38.22.29l2,8.65.44,2.41L41.08,9,42.79.29h3.33l1.8,8.65.46,2.41L48.84,9l2-8.74h3.21L49.82,15.4h-3L45,6.56l-.53-2.92-.53,2.92L42.08,15.4H39.15L34.86.29Z"/><path class="cls-1" d="M78.35.68a3.76,3.76,0,0,1,1.41,1A5,5,0,0,1,80.52,3a4.21,4.21,0,0,1,.28,1.59,4.54,4.54,0,0,1-.54,2.12,3,3,0,0,1-1.8,1.47A2.86,2.86,0,0,1,80,9.38a5,5,0,0,1,.43,2.36v1a8.19,8.19,0,0,0,.08,1.4,1.26,1.26,0,0,0,.59.86v.38H77.56c-.09-.33-.16-.6-.2-.81a7,7,0,0,1-.14-1.3l0-1.41A2.82,2.82,0,0,0,76.7,10a2.55,2.55,0,0,0-1.8-.49H71.82V15.4H68.73V.29H76A6.57,6.57,0,0,1,78.35.68ZM71.82,2.91V7h3.4a3.73,3.73,0,0,0,1.52-.24A1.72,1.72,0,0,0,77.63,5a1.91,1.91,0,0,0-.86-1.84,3.11,3.11,0,0,0-1.46-.27Z"/><path class="cls-1" d="M98.17,3h-8V6.17h7.34V8.8H90.17v3.88h8.37V15.4H87.09V.29H98.17Z"/><path class="cls-1" d="M114.44,8.86A5.77,5.77,0,0,1,110.65,10H107.5V15.4h-3.14V.29h6.49a5.23,5.23,0,0,1,3.58,1.17,4.56,4.56,0,0,1,1.34,3.62A4.71,4.71,0,0,1,114.44,8.86ZM112,3.41a2.57,2.57,0,0,0-1.68-.5H107.5V7.36h2.85A2.42,2.42,0,0,0,112,6.82a2.22,2.22,0,0,0,.6-1.72A2.1,2.1,0,0,0,112,3.41Z"/><path class="cls-1" d="M121.31.29h3.21V9.57a5.3,5.3,0,0,0,.36,2.27,2.45,2.45,0,0,0,2.5,1.27,2.42,2.42,0,0,0,2.48-1.27,5.13,5.13,0,0,0,.37-2.27V.29h3.21V9.58a7.79,7.79,0,0,1-.75,3.75q-1.4,2.46-5.31,2.46c-2.62,0-4.39-.82-5.33-2.46a7.91,7.91,0,0,1-.74-3.75Z"/><path class="cls-1" d="M151.1,1.9a3.78,3.78,0,0,1,.7,2.3,3.4,3.4,0,0,1-.7,2.23,3.68,3.68,0,0,1-1.16.86,3.36,3.36,0,0,1,1.75,1.33,4,4,0,0,1,.59,2.22,4.5,4.5,0,0,1-.67,2.41,4.37,4.37,0,0,1-1.07,1.19,4.29,4.29,0,0,1-1.71.76,11,11,0,0,1-2.14.2h-6.81V.29h7.31A4.59,4.59,0,0,1,151.1,1.9Zm-8.2,1V6.24h3.67a3,3,0,0,0,1.6-.37,1.42,1.42,0,0,0,.61-1.33A1.35,1.35,0,0,0,148,3.15a5.61,5.61,0,0,0-1.79-.24Zm0,5.84v4h3.67a3.56,3.56,0,0,0,1.53-.27,1.91,1.91,0,0,0,1-1.89,1.63,1.63,0,0,0-1-1.62,3.78,3.78,0,0,0-1.51-.25Z"/><path class="cls-1" d="M158.27.29h3.15V12.68H169V15.4h-10.7Z"/><path class="cls-1" d="M177.32,15.4h-3.13V.29h3.13Z"/><path class="cls-1" d="M185.21,1.87A6.18,6.18,0,0,1,189.85,0q3.78,0,5.52,2.5a5.53,5.53,0,0,1,1,2.82h-3.16a4.25,4.25,0,0,0-.78-1.64,3.43,3.43,0,0,0-5.16.41,6.75,6.75,0,0,0-1,3.93,6,6,0,0,0,1,3.81A3.21,3.21,0,0,0,190,13.09,3,3,0,0,0,192.46,12a4.93,4.93,0,0,0,.78-1.76h3.14a6.81,6.81,0,0,1-2.08,4A6,6,0,0,1,190,15.82,6.45,6.45,0,0,1,185,13.73,8.42,8.42,0,0,1,183.11,8,8.34,8.34,0,0,1,185.21,1.87Z"/></g></g></svg>