<svg xmlns="http://www.w3.org/2000/svg" viewBox="0 0 845.68 170.28"><defs><style>.cls-1{fill:#1d1d1d;}</style></defs><g id="Layer_2" data-name="Layer 2"><g id="Layer_1-2" data-name="Layer 1"><path class="cls-1" d="M0,21.87a3,3,0,0,1,2.71-1.41c3,0,6,0,9,0,2.21.05,2.29.18,3,2.2,5,13.76,9.63,27.66,14.39,41.51q9.3,27,18.49,54c1.57,4.59,3.11,9.18,4.68,13.76.17.52.39,1,.71,1.86.47-1.57.84-2.79,1.22-4,2.63-8.68,5.84-17.17,8.75-25.76,3.82-11.31,7.79-22.57,11.71-33.86q8.28-23.87,16.53-47.74a2.51,2.51,0,0,1,2.4-1.94A25.76,25.76,0,0,1,98,20.5c1.68.15,2.09.73,1.67,2.34-.35,1.3-.77,2.59-1.21,3.87Q90.57,49.29,82.7,71.87q-12.26,35.19-24.48,70.38c-.32.91-.68,1.79-1,2.71a2.94,2.94,0,0,1-2.38,2.14,13.83,13.83,0,0,1-4.54.05,2.36,2.36,0,0,1-1.91-1.49,21.72,21.72,0,0,1-.85-2.2q-9.18-26.59-18.36-53.2-9.31-27-18.67-54C9.8,34.1,9,31.94,8.29,29.74a1.85,1.85,0,0,0-2-1.45c-1.29,0-2.58-.24-3.87-.33A2.48,2.48,0,0,1,0,26.27Z"/><path class="cls-1" d="M845.68,68.86c-2.26,8.49-5,16.82-7.55,25.22-4.57,15.19-9.13,30.39-14,45.5-2,6.37-4.17,12.73-7.39,18.65a34,34,0,0,1-3.53,5.34,18.21,18.21,0,0,1-9.36,6.32c-.38.11-.75.26-1.12.39h-5.41c-1-.42-2-.77-2.93-1.28a6.26,6.26,0,0,1-3.17-7.71,5,5,0,0,1,3.72-3.35,3.82,3.82,0,0,1,3.87,1.08c.69.74,1.28,1.56,1.92,2.35a2.32,2.32,0,0,0,3,.9,6.38,6.38,0,0,0,2.38-1.57,23.57,23.57,0,0,0,4.66-7,138.62,138.62,0,0,0,6.09-16.29c.88-2.73,1.78-5.46,2.65-8.19.39-1.23.4-1.28-.79-1.7a4.86,4.86,0,0,1-3.14-3.26q-7.95-22.71-16-45.39Q798,74.44,796.38,70a6.91,6.91,0,0,1-.5-2.29c0-1.36.42-1.83,1.77-1.94.84-.06,1.68-.11,2.52-.18,2.31-.18,3.48.53,4.24,2.71Q808,78.65,811.59,89q4.88,14.22,9.73,28.45a6.93,6.93,0,0,0,.84,2c.57-.4.59-1,.76-1.58,2.5-7.89,4.83-15.83,7.13-23.78s4.55-15.67,6.85-23.5c.32-1.08.73-2.13,1.09-3.2a2.19,2.19,0,0,1,2.28-1.62,48.8,48.8,0,0,1,5.41.08Z"/><path class="cls-1" d="M432.33,72.78c.31.49.82.35,1.24.43,6.57,1.26,12.46,3.86,17.11,8.84a31,31,0,0,1,7.23,13.77,50.92,50.92,0,0,1,1.43,16.91,54.37,54.37,0,0,1-1,7.86c-2.54,10.76-8.86,18.26-19.19,22.35a60.61,60.61,0,0,1-16.42,3.74c-5.61.55-11.24.61-16.87.6q-14.11,0-28.23,0a28.66,28.66,0,0,1-3.7-.28c-1.45-.19-1.64-.4-1.69-1.79-.1-2.93-.23-5.85-.23-8.78q0-52.29,0-104.59c0-.4,0-.79,0-1.18,0-2.32-.1-2.42-2.47-2.6a31.71,31.71,0,0,1-3.36-.28,1.42,1.42,0,0,1-1.36-1.6c0-1.35,0-2.7,0-4.05,0-1.18.31-1.42,1.54-1.58a15.25,15.25,0,0,1,2-.1c15,0,30.08-.05,45.12.06A51.34,51.34,0,0,1,432,23.76a23.76,23.76,0,0,1,12.13,9.79,24.24,24.24,0,0,1,3.06,8.71A33.36,33.36,0,0,1,446.87,56c-1.82,7.4-6,12.86-13.08,16A3.37,3.37,0,0,0,432.33,72.78ZM380.5,83.56h0v53.56c0,2.41,0,2.42,2.45,2.42H412a89.81,89.81,0,0,0,10.63-.44,45.19,45.19,0,0,0,12.59-3.1c7-3,11.49-8.17,13.83-15.44,1.83-5.67,1.8-19.06-.27-25.06a24.26,24.26,0,0,0-6.73-10.76,26,26,0,0,0-10.45-5.31,49,49,0,0,0-12-1.68c-6-.14-11.94-.11-17.91-.08-3.27,0-6.54-.11-9.8-.3-1.53-.09-1.77-.29-2-1.74a12.35,12.35,0,0,1,0-3.54c.29-1.78.49-2,2.27-2,4.62,0,9.24-.05,13.86,0,4.23,0,8.45-.1,12.67-.33a29.44,29.44,0,0,0,8.59-1.69c5.12-1.87,8.78-5.23,10.35-10.55a29.74,29.74,0,0,0,.43-15.69A15.3,15.3,0,0,0,430,31.6a26.32,26.32,0,0,0-7.14-2.53A56.26,56.26,0,0,0,411.91,28H383c-2.51,0-2.51,0-2.51,2.48Z"/><path class="cls-1" d="M665.21,71.38c.4-.5.22-1.08.22-1.62q0-30,0-60v-.5c0-1.77-.11-1.85-2-1.88a10.12,10.12,0,0,1-2.69-.27c-1.38-.41-1.76-.84-1.83-2.25,0-1,0-2,0-3,.08-1.23.31-1.51,1.51-1.58,2-.13,4-.23,6.08-.24,1.69,0,3.38.11,5.06.21s1.9.3,1.94,2.05c0,1.91.06,3.83.06,5.74q0,49.95,0,99.88a19.55,19.55,0,0,0,4.22,12.88c1.34,1.66,1.16,3.17-.41,4.6a6.44,6.44,0,0,1-1.23.89c-1.9,1.08-2.56,1-4.2-.53a22.3,22.3,0,0,1-4.38-6.16c-.25-.48-.31-1.1-.88-1.37-.53.09-.7.56-1,.89-8.16,10-23.52,12.32-34.53,5.52-4.75-2.93-7.79-7.26-9.8-12.36-2.63-6.7-3.09-13.68-2.49-20.78a40.56,40.56,0,0,1,3-12.59c4-9.37,11.15-14.28,21.19-15.16,7.9-.68,14.7,2,20.8,6.85C664.36,70.86,664.62,71.36,665.21,71.38Zm.19,23.81h0V81.68a3.4,3.4,0,0,0-.82-2.65c-5.68-5.74-12.38-8.86-20.61-8.14-7.49.65-12.31,4.82-14.9,11.67a40,40,0,0,0-2,17.64,30.23,30.23,0,0,0,1.92,9c2.23,5.56,5.77,9.76,11.81,11.36a21.33,21.33,0,0,0,10.2.17,20.87,20.87,0,0,0,13.44-8.92,5.37,5.37,0,0,0,1-3.16C665.38,104.2,665.4,99.69,665.4,95.19Z"/><path class="cls-1" d="M291.55,96.46c0,4.84,0,9.69,0,14.53a12.08,12.08,0,0,0,2.27,7.29c.81,1.15,1.63,2.29,2.42,3.46s.73,1.36-.06,2.41a7.59,7.59,0,0,1-2.4,2.35,2.65,2.65,0,0,1-3.27-.27c-4.46-3.82-7.18-8.48-7.19-14.49l0-13.85c0-.45,0-.9,0-1.35-.07-1.08-.23-1.29-1.34-1.25-2.14.07-4.28.19-6.41.39a68.9,68.9,0,0,0-9.68,1.43,31.85,31.85,0,0,0-6.38,2.19c-4.85,2.31-7.63,6-7.56,11.55a16.38,16.38,0,0,0,.25,3.7,8.73,8.73,0,0,0,8.27,7A21.61,21.61,0,0,0,275,117.78c.5-.36,1-.7,1.52-1.07,2.4-1.75,2-2.08,4.13.58,1.82,2.26,1.83,2.43-.26,4.41a23.71,23.71,0,0,1-8.6,4.9,28.6,28.6,0,0,1-14.46,1.48c-8.26-1.36-13.52-7.41-13.63-15.76,0-.9,0-1.8.05-2.7a2.73,2.73,0,0,1,.38-1.62,2.11,2.11,0,0,0,.41-2,3.18,3.18,0,0,1,.49-2.09,17.87,17.87,0,0,1,8.72-9.06,46.87,46.87,0,0,1,14.5-4.37,97.29,97.29,0,0,1,11.43-1c3.58-.12,3.6-.14,3.59-3.67a56.43,56.43,0,0,0-.19-6.75c-.64-5.32-4.11-7.74-8.6-8.62a27.7,27.7,0,0,0-11.57.4,12.18,12.18,0,0,0-5.8,3c-1.27,1.19-1.4,1.89-.69,3.44.17.36.37.7.53,1.06a4.45,4.45,0,0,1-2.52,6.22,5.13,5.13,0,0,1-6.88-2.79,8.56,8.56,0,0,1-.1-6.59,13,13,0,0,1,5-6.39,27.84,27.84,0,0,1,14-4.91,36.89,36.89,0,0,1,11.09.62,21.13,21.13,0,0,1,6.84,2.81,15,15,0,0,1,6.75,11.2,38.68,38.68,0,0,1,.31,5c0,4.34,0,8.67,0,13Z"/><path class="cls-1" d="M598.26,93.91c0,3.72,0,7.44,0,11.16,0,2.47.15,5,.26,7.42a12.74,12.74,0,0,0,2.5,6.37c.71,1.08,1.51,2.11,2.3,3.13a1.25,1.25,0,0,1,0,1.8,15,15,0,0,1-1.82,2c-2,1.67-2.92,1.67-4.83-.06a20.53,20.53,0,0,1-2.83-3.13,18,18,0,0,1-3.64-10.33c-.2-4.9-.13-9.79-.18-14.69,0-.28,0-.56,0-.84-.08-1.25-.27-1.49-1.54-1.44-1.91.07-3.82.2-5.72.37a62.56,62.56,0,0,0-12.31,2,21.53,21.53,0,0,0-7.54,3.68c-4.89,3.9-5.28,11.57-2.83,15.89,1.62,2.86,4.33,4,7.45,4.26a21,21,0,0,0,14.1-3.64c1.07-.74,2.14-1.47,3.19-2.22a1,1,0,0,1,1.58.24c.65.92,1.37,1.8,2,2.74.73,1.12.69,1.37-.32,2.31a24.26,24.26,0,0,1-6.66,4.56,31,31,0,0,1-13.94,2.88,21.44,21.44,0,0,1-7.26-1.46,14,14,0,0,1-8.52-8.6c-2.28-6.74-1.64-13.12,2.88-18.82a20.65,20.65,0,0,1,8.69-6,57.12,57.12,0,0,1,14.41-3.48c3.52-.45,7.07-.55,10.6-.9,1.71-.17,1.76-.23,1.74-2a77,77,0,0,0,0-7.75c-.47-4.15-2.39-7.18-6.44-8.45a23.79,23.79,0,0,0-17.14,1,8.7,8.7,0,0,0-2.94,2.23c-.94,1-1,1.32-.39,2.55a14,14,0,0,1,1,2.32A4.1,4.1,0,0,1,563,83.33c-2,2.09-6.53,2.35-8.35-1.2a8.82,8.82,0,0,1-.1-7.67,14.2,14.2,0,0,1,6.19-6.71A26.82,26.82,0,0,1,572,63.92c5.25-.53,10.47-.51,15.51,1.41a16.46,16.46,0,0,1,7.18,4.88,15.73,15.73,0,0,1,3.49,9.85c.07,4.62,0,9.24,0,13.85Z"/><path class="cls-1" d="M180.74,70.65a34.44,34.44,0,0,1,4.56-3.34,29.35,29.35,0,0,1,12.59-3.54,34.81,34.81,0,0,1,8.59.21c7.72,1.43,12.85,6.7,14,14.49.8,5.45-.3,10.42-4,14.66a18.4,18.4,0,0,1-7.16,5l-1.49.59c.17.45.6.49.9.65a12.93,12.93,0,0,1,4.8,4.66,49.72,49.72,0,0,1,3.64,7.79c.61,1.45,1.17,2.93,1.89,4.33a6.1,6.1,0,0,0,4.36,3.42c.93.2,1.86.46,2.78.69a1.25,1.25,0,0,1,1.05,1.34c0,1.18,0,2.36-.06,3.54a1.2,1.2,0,0,1-1.27,1.29,34.23,34.23,0,0,1-6.24-.14,9.21,9.21,0,0,1-6.86-4.69,52.22,52.22,0,0,1-2.91-5.91c-.82-2-1.62-4-2.45-5.93a23.18,23.18,0,0,0-2.54-4.57A7.22,7.22,0,0,0,199.4,102a48.73,48.73,0,0,0-7.25-.11,45.22,45.22,0,0,1-5.57-.24,1.26,1.26,0,0,1-1.33-1.41c0-.84-.06-1.69,0-2.53.1-1.56.65-2.14,2.21-2.19,1.91-.07,3.83,0,5.75,0a47.79,47.79,0,0,0,7.75-.34c4.8-.78,8.68-2.9,10.6-7.6a13.68,13.68,0,0,0-.9-12.51,8.57,8.57,0,0,0-4.28-3.68,11.77,11.77,0,0,0-4.42-1c-5.65-.09-11.13.66-16.09,3.64-.44.26-.88.52-1.29.81-3.52,2.41-3.62,2.62-3.62,6.9q0,19.85,0,39.71c0,1.18,0,2.37-.11,3.54s-.39,1.39-1.5,1.42c-1.63.06-3.26,0-4.9,0a1.28,1.28,0,0,1-1.45-1.28,24.34,24.34,0,0,1-.25-3.19l.06-52.22a20.65,20.65,0,0,1,.18-2.36c.15-1.29.28-1.47,1.52-1.55a35.87,35.87,0,0,1,3.88,0c1.2.06,1.57.41,1.82,1.61C180.43,68.37,180.54,69.37,180.74,70.65Z"/><path class="cls-1" d="M514.7,99c3.93,1.57,5.88,4.76,7.43,8.29,1,2.37,2,4.76,3.07,7.14.33.77.73,1.52,1.11,2.28a4.81,4.81,0,0,0,3.19,2.56c1,.28,2,.56,2.93.8a2.24,2.24,0,0,1,1.8,2.16,11.37,11.37,0,0,1-.24,3.19,1.07,1.07,0,0,1-1.16,1c-2.47.05-5,.26-7.39-.42a8.71,8.71,0,0,1-5.25-3.71,41.37,41.37,0,0,1-3.3-6.46c-1.09-2.6-2-5.27-3.33-7.77a23.47,23.47,0,0,0-1.45-2.47,7.84,7.84,0,0,0-6.2-3.58,48.08,48.08,0,0,0-7.59,0,35.55,35.55,0,0,1-4.72-.25,1.14,1.14,0,0,1-1.08-.69,5.12,5.12,0,0,1-.3-4.09,2.21,2.21,0,0,1,2.31-1.38q3.63,0,7.27,0a34.13,34.13,0,0,0,5.89-.34A16.41,16.41,0,0,0,514,92.89a11.47,11.47,0,0,0,5.3-8.8,14.5,14.5,0,0,0-.2-5.21c-1.28-5.2-4.33-8.08-9.85-8.45-7-.47-13.57.93-19.21,5.45-.18.14-.33.3-.52.43A4,4,0,0,0,487.89,80c.05,13.58,0,27.16,0,40.73,0,1.47-.18,2.92-.26,4.39a1.24,1.24,0,0,1-1.4,1.32H481.2a1.29,1.29,0,0,1-1.4-1.36c0-.62-.07-1.24-.07-1.86q0-27.21,0-54.42c0-.34,0-.68,0-1,.13-1.52.42-1.77,1.94-2a12.26,12.26,0,0,1,3.87,0,1.76,1.76,0,0,1,1.56,1.51c.25,1,.06,2.14.5,3.06a.55.55,0,0,0,.7-.13c3.59-3.45,8-5.16,12.83-6a35.79,35.79,0,0,1,12.43-.2c8.82,1.61,13.56,8.4,14,16.5a16.92,16.92,0,0,1-5.78,14.19,18.53,18.53,0,0,1-5.92,3.52A1.81,1.81,0,0,0,514.7,99Z"/><path class="cls-1" d="M760.81,94.57H743.23a15.93,15.93,0,0,1-1.69-.08,1,1,0,0,1-1-.75,8.47,8.47,0,0,1-.3-3.84,1.93,1.93,0,0,1,2.09-1.79c1.13-.06,2.26,0,3.38,0h25.36c2.32,0,2.37-.1,2-2.43a20.53,20.53,0,0,0-3.83-9.27,14,14,0,0,0-9-5.5,24.15,24.15,0,0,0-5.28-.49c-7.41.47-12.9,4-16.19,10.73a31.27,31.27,0,0,0-2.92,11.38,40.6,40.6,0,0,0,.76,12.25,21.86,21.86,0,0,0,4.78,9.76,20.11,20.11,0,0,0,13.1,6.68,26,26,0,0,0,20.65-5.89c.57-.46,1.17-.89,1.76-1.32a1.45,1.45,0,0,1,2.11.14,17.87,17.87,0,0,1,2.23,2.53c.71,1,.7,1.21-.15,2.21a21.89,21.89,0,0,1-6.57,5.23c-10.52,5.5-21.21,6-32,.9a24.4,24.4,0,0,1-11.75-12.28,37.44,37.44,0,0,1-3.17-13.91,39.33,39.33,0,0,1,2.38-16.59c3.62-9.45,10.23-15.63,20.21-17.9a27.71,27.71,0,0,1,16.75,1.27,21.27,21.27,0,0,1,12,11.88,36.35,36.35,0,0,1,2.56,13.36c0,.22,0,.45,0,.67-.25,2.77-.67,3.16-3.4,3.16H760.81Z"/><path class="cls-1" d="M129.69,94.6H114.31c-1,0-1.92,0-2.87-.07-1.34-.08-1.46-.24-1.73-1.58a9.26,9.26,0,0,1,.11-3.52,1.42,1.42,0,0,1,1.6-1.37c.5,0,1,0,1.52,0h27.55c2.19,0,2.36-.21,2-2.31a20.59,20.59,0,0,0-3.19-8.47c-3.71-5.33-9-7.22-15.27-6.87a17.75,17.75,0,0,0-8.65,2.6,20.2,20.2,0,0,0-8.69,11.67,40.36,40.36,0,0,0-.68,20.21,21.46,21.46,0,0,0,4.84,9.73c3.47,4,8,5.92,13.14,6.57a26.11,26.11,0,0,0,20.23-5.69c.62-.49,1.24-1,1.87-1.45,1.17-.86,1.27-.86,2.28.1a18.9,18.9,0,0,1,1.53,1.57c1.33,1.56,1.3,2.7-.21,4.1a29.21,29.21,0,0,1-7.51,5.12,34.41,34.41,0,0,1-27.25,1.37,25,25,0,0,1-16-16.7,40.61,40.61,0,0,1,.72-28.14c4-10.1,11.56-16,22.33-17.62a27,27,0,0,1,14.57,1.81c6.68,2.74,10.72,7.83,12.81,14.59a35.58,35.58,0,0,1,1.47,12c-.07,1.77-.29,2-2,2.25a32.13,32.13,0,0,1-3.54.13c-5.19,0-10.37,0-15.55,0Z"/><path class="cls-1" d="M705.68,57.22v50a31.44,31.44,0,0,0,.2,4.55,17.42,17.42,0,0,0,3.13,7.58c.58.82,1.08,1.71,1.61,2.57a1.73,1.73,0,0,1-.18,2.18,12.66,12.66,0,0,1-3.05,2.65,2,2,0,0,1-2.37-.12,11.57,11.57,0,0,1-2.33-2.2,22.63,22.63,0,0,1-5.2-14.83q0-49.41,0-98.82c0-1,.37-2.17-.24-3s-1.91-.35-2.89-.44c-3-.26-3.71-1.1-3.57-4.09,0-.17,0-.33,0-.5.25-2.27.54-2.59,2.83-2.62,3.1,0,6.2,0,9.3,0,1.91,0,2.34.43,2.62,2.35a16,16,0,0,1,.12,2.19q0,26.27,0,52.54Z"/></g></g></svg>